<?xml version="1.0" encoding="UTF-8"?>
<svg version="1.1" xmlns="http://www.w3.org/2000/svg" width="500" height="500">
<path d="M0 0 C-0.14624023 1.81542969 -0.14624023 1.81542969 -1 4 C-3.42993164 5.52050781 -3.42993164 5.52050781 -6.66015625 6.953125 C-7.83811768 7.48558838 -9.0160791 8.01805176 -10.22973633 8.56665039 C-10.85538483 8.84139191 -11.48103333 9.11613342 -12.12564087 9.39920044 C-14.72690332 10.54185088 -17.31324776 11.71655328 -19.90104675 12.88929749 C-21.18316168 13.46973283 -22.46604861 14.048466 -23.74971008 14.62547302 C-30.22429129 17.5362564 -36.57096565 20.65674075 -42.87939453 23.90869141 C-44.4406618 24.71215269 -46.00452884 25.5105671 -47.56982422 26.30615234 C-84.58924311 45.1288201 -121.0222724 67.89570848 -150 98 C-155 103 -155 103 -156.9140625 104.80859375 C-163.13479613 110.79852278 -168.4073877 117.29679801 -173.60595703 124.16601562 C-174.93931953 125.92016958 -176.29387141 127.65589058 -177.65234375 129.390625 C-186.61561223 141.03001282 -194.4307342 153.86146841 -201 167 C-206.44356826 166.44789566 -211.24073591 165.46659092 -216.4609375 163.734375 C-217.50473068 163.3898101 -217.50473068 163.3898101 -218.5696106 163.0382843 C-220.84115199 162.28440311 -223.1082449 161.5181431 -225.375 160.75 C-226.15657471 160.48766571 -226.93814941 160.22533142 -227.7434082 159.95504761 C-249.11973415 152.77205787 -270.23272469 144.79196738 -291 136 C-291 132 -291 132 -289.61401367 130.12817383 C-288.97181885 129.49419678 -288.32962402 128.86021973 -287.66796875 128.20703125 C-286.60243774 127.14488403 -286.60243774 127.14488403 -285.51538086 126.0612793 C-284.74718018 125.31918213 -283.97897949 124.57708496 -283.1875 123.8125 C-282.40576416 123.04655518 -281.62402832 122.28061035 -280.81860352 121.49145508 C-275.1225533 115.96236515 -269.32816918 110.80038073 -263 106 C-261.79021473 105.06139103 -260.58059072 104.12257419 -259.37109375 103.18359375 C-190.20774695 49.95788773 -101.85857756 27.43651133 -19.125 4.625 C-18.25881042 4.38571777 -17.39262085 4.14643555 -16.50018311 3.89990234 C-14.08695497 3.23463185 -11.67266874 2.57339559 -9.2578125 1.9140625 C-8.54566589 1.71793365 -7.83351929 1.52180481 -7.09979248 1.31973267 C-2.232441 0 -2.232441 0 0 0 Z " fill="#007297" transform="translate(494,166)"/>
<path d="M0 0 C0 0.66 0 1.32 0 2 C-9.36204625 4.42693851 -18.78521478 6.52864463 -28.22714233 8.61450195 C-56.52529249 14.88627819 -84.42947274 21.98730579 -112 31 C-113.11213867 31.36206543 -114.22427734 31.72413086 -115.37011719 32.09716797 C-131.9575349 37.54228517 -148.06446641 43.87232518 -164 51 C-164.98597168 51.44069824 -165.97194336 51.88139648 -166.98779297 52.33544922 C-197.16807413 65.97194081 -223.63786863 84.18774706 -250 104 C-274.21258322 93.09026701 -298.17333062 81.72803663 -322 70 C-320.54113059 65.62339178 -317.1759562 64.52163669 -313.3125 62.4375 C-312.50796387 61.99986328 -311.70342773 61.56222656 -310.87451172 61.11132812 C-247.58553043 27.23118421 -172.84656453 14.2292759 -102.31314087 5.29605103 C-100.07358867 5.00941836 -97.8360481 4.70993595 -95.59838867 4.40893555 C-86.30102136 3.19279816 -77.13007839 2.70822806 -67.75827026 2.5927124 C-51.02063863 2.37481748 -34.4088005 1.36582922 -17.73413086 -0.07202148 C-16.91755005 -0.14020584 -16.10096924 -0.2083902 -15.25964355 -0.27864075 C-13.73744012 -0.40644679 -12.21572549 -0.54028398 -10.69470215 -0.68144226 C-6.92407618 -0.99757126 -3.66747922 -0.97388824 0 0 Z " fill="#007297" transform="translate(418,183)"/>
<path d="M0 0 C2.42893485 0.01795399 4.85783025 0.03049069 7.2868042 0.04156494 C21.09354681 0.1222248 33.86342892 0.9527285 47.20135498 4.60943604 C53.87569299 6.41936169 60.66172687 7.605809 67.46307373 8.83209229 C68.66979736 9.05091064 69.876521 9.269729 71.11981201 9.49517822 C73.96261948 10.00784947 76.80610764 10.51621858 79.65057373 11.01959229 C79.65057373 12.00959229 79.65057373 12.99959229 79.65057373 14.01959229 C74.24504997 15.0567051 68.85866017 15.41786663 63.37713623 15.78131104 C61.27583543 15.92794154 59.17460109 16.07552692 57.07342529 16.22393799 C55.41349548 16.34099594 55.41349548 16.34099594 53.72003174 16.4604187 C-17.28629331 21.54551036 -97.20924217 29.3679027 -161.74615479 61.72076416 C-166.17949708 63.86170967 -168.60684128 64.1514052 -173.34942627 63.01959229 C-175.85284424 61.93487549 -175.85284424 61.93487549 -178.34161377 60.57037354 C-179.28230713 60.05877686 -180.22300049 59.54718018 -181.19219971 59.02008057 C-182.19283447 58.46304443 -183.19346924 57.9060083 -184.22442627 57.33209229 C-185.27146729 56.75700928 -186.3185083 56.18192627 -187.39727783 55.5894165 C-197.86755803 49.80436017 -208.21439968 43.80216723 -218.49591064 37.6885376 C-220.55486221 36.48431165 -222.63151293 35.310171 -224.71856689 34.15533447 C-225.81878174 33.54077393 -226.91899658 32.92621338 -228.05255127 32.29302979 C-229.0647876 31.73792725 -230.07702393 31.18282471 -231.11993408 30.61090088 C-232.22353271 29.82320312 -232.22353271 29.82320312 -233.34942627 29.01959229 C-233.34942627 28.02959229 -233.34942627 27.03959229 -233.34942627 26.01959229 C-185.60123856 5.77851271 -129.53728923 3.28499792 -78.34942627 1.01959229 C-77.06390869 0.96174561 -75.77839111 0.90389893 -74.45391846 0.84429932 C-49.64776472 -0.21254946 -24.82369212 -0.19357702 0 0 Z " fill="#007297" transform="translate(234.34942626953125,171.98040771484375)"/>
</svg>
