
<svg xmlns="http://www.w3.org/2000/svg" width="40" height="40" viewBox="0 0 511.723320 511.306771" preserveAspectRatio="xMidYMid meet">
  <g transform="translate(-0.194106,511.851935) rotate(-360.00) scale(0.095238,-0.095238)" fill="#94a8c1" stroke="none">
    <path fill="#94a8c1" stroke="none" d="M2368 5364 c-351 -53 -588 -124 -873
    -262 -558 -271 -1034 -771 -1277 -1343 -151 -353 -207 -618 -215 -1013 -7
    -336 20 -547 106 -830 138 -455 370 -835 711 -1165 384 -372 828 -601 1386
    -716 136 -28 152 -29 482 -29 357 -1 364 0 604 53 350 79 647 211 976 437
    99 68 342 291 464 426 166 184 369 512 463 750 55 138 108 314 145 481 28
    126 29 144 33 496 4 355 4 369 -22 509 -66 361 -203 704 -398 1004 -218 334
    -572 670 -904 858 -146 83 -375 185 -526 233 -137 44 -379 96 -522 112 -121
    13 -543 13 -633 -1z"></path>
    <path fill="#feffff" stroke="none" d="M2961 5034 c694 -81 1322 -474 1710
    -1070 296 -454 426 -1007 364 -1541 -94 -799 -580 -1489 -1303 -1849 -224
    -111 -421 -176 -682 -224 -150 -27 -574 -27 -724 0 -412 76 -753 224 -1081
    472 -118 89 -354 328 -447 453 -485 651 -605 1495 -318 2247 79 209 216 450
    356 629 93 117 324 342 444 431 259 193 528 319 852 399 270 68 550 85 829
    53z"></path>
    <path fill="#94a8c1" stroke="none" d="M3472 4482 c-9 -14 -35 -103 -59 -198
    -25 -95 -49 -179 -55 -186 -6 -7 -27 -16 -47 -20 -75 -14 -119 -74 -166 -222
    -31 -101 -230 -825 -252 -921 -28 -123 -17 -180 47 -242 37 -35 40 -69 15
    -172 -29 -124 -80 -393 -110 -588 -17 -107 -33 -196 -36 -198 -3 -3 -10 7 -16
    23 -12 33 -88 405 -109 534 -16 102 -21 84 52 183 33 45 36 95 15 218 -48 277
    -201 997 -221 1036 -22 42 -102 104 -137 104 -31 0 -43 28 -79 201 -42 200
    -52 229 -79 229 -29 0 -25 -69 16 -265 l34 -166 -31 -28 c-45 -44 -70 -100
    -70 -159 0 -66 206 -1108 228 -1155 19 -40 73 -78 136 -97 40 -11 45 -16 56
    -61 18 -72 98 -475 132 -665 34 -190 33 -189 104 -59 33 62 39 84 53 210 32
    278 110 692 151 799 8 20 22 31 51 39 60 16 110 53 135 101 12 23 42 112 65
    199 185 677 222 816 233 872 17 85 2 139 -56 201 l-43 47 45 180 c25 99 46
    194 47 211 2 40 -27 49 -49 15z"></path>
    <path fill="#feffff" stroke="none" d="M3468 3881 c-1 -59 -8 -86 -159 -649
    -115 -426 -130 -467 -183 -494 -21 -11 -46 -19 -56 -17 -15 3 -14 8 9 35 45
    55 59 93 139 386 164 606 184 692 184 781 l0 82 34 -33 c30 -30 33 -40 32 -91z"></path>
    <path fill="#feffff" stroke="none" d="M2435 3743 c17 -15 41 -52 52 -83 27
    -72 211 -950 219 -1044 6 -69 5 -72 -28 -110 -19 -21 -38 -38 -43 -38 -5 0 -6
    32 -3 71 7 86 4 106 -103 622 -90 435 -100 478 -134 543 -12 24 -22 49 -22 55
    0 19 29 11 62 -16z"></path>
    <path fill="#94a8c1" stroke="none" d="M3693 3498 c-230 -334 -335 -573 -560
    -1275 -102 -319 -109 -344 -99 -343 5 0 54 43 109 97 l99 97 23 105 c72 325
    245 823 414 1194 50 108 91 199 91 202 0 22 -28 -6 -77 -77z"></path>
    <path fill="#94a8c1" stroke="none" d="M1617 3374 c0 -4 35 -53 78 -109 91
    -118 267 -385 360 -545 132 -229 324 -591 363 -686 28 -67 -4 -47 -65 40 -78
    111 -162 209 -218 252 -89 67 -87 47 4 -75 204 -271 381 -623 482 -958 32
    -105 42 -121 52 -79 3 17 14 54 23 83 9 29 17 74 16 100 0 72 -89 419 -148
    577 -66 175 -200 464 -280 604 -104 179 -278 428 -408 581 -107 127 -259 253
    -259 215z"></path>
    <path fill="#94a8c1" stroke="none" d="M3297 2020 c-76 -51 -279 -255 -334
    -337 -69 -101 -197 -357 -221 -439 -32 -111 -54 -241 -54 -321 0 -69 2 -74 27
    -83 15 -6 62 -11 104 -11 l78 1 5 34 c3 18 10 116 16 218 12 193 33 310 81
    430 61 155 178 331 312 470 81 83 75 97 -14 38z"></path>
  </g>
</svg>
