
<svg xmlns="http://www.w3.org/2000/svg" width="40" height="40" viewBox="0 0 511.938450 511.848324" preserveAspectRatio="xMidYMid meet">
  <g transform="translate(-0.030782,511.879407) rotate(-360.00) scale(0.095238,-0.095238)" fill="#91d7aa" stroke="none">
    <path fill="#91d7aa" stroke="none" d="M2336 5359 c-784 -106 -1475 -543
    -1908 -1206 -221 -338 -362 -725 -412 -1129 -21 -171 -21 -501 0 -672 97 -781
    534 -1482 1197 -1917 345 -227 729 -368 1139 -419 171 -21 501 -21 672 0 785
    97 1487 538 1924 1207 221 338 362 725 412 1129 21 171 21 501 0 672 -97 781
    -534 1482 -1197 1917 -342 225 -720 365 -1133 419 -156 20 -543 20 -694 -1z">
    </path>
    <path fill="#feffff" stroke="none" d="M2910 5039 c718 -73 1342 -450 1749
    -1054 62 -94 120 -198 179 -328 338 -736 266 -1601 -190 -2281 -310 -463 -803
    -818 -1340 -967 -236 -65 -339 -78 -620 -78 -223 0 -274 3 -383 24 -259 49
    -445 111 -673 225 -991 498 -1505 1615 -1233 2680 173 680 639 1252 1265 1554
    387 187 834 268 1246 225z">
    </path>
    <path fill="#91d7aa" stroke="none" d="M4143 4106 c-4 -11 -6 -46 -5 -77 3
    -66 -4 -81 -37 -81 -28 0 -131 -41 -202 -80 -173 -95 -426 -318 -588 -517
    -107 -132 -96 -127 -303 -140 -204 -12 -420 -6 -625 19 -184 22 -467 14 -561
    -15 -171 -53 -268 -119 -418 -283 -64 -69 -94 -77 -272 -74 -229 3 -442 -57
    -586 -167 -94 -72 -68 -90 45 -33 74 37 169 72 198 72 32 0 22 -19 -21 -41
    -51 -26 -72 -50 -56 -66 8 -9 32 -3 88 21 103 44 135 51 135 30 0 -9 -10 -22
    -22 -28 -11 -6 -21 -19 -21 -28 1 -13 7 -15 29 -9 16 4 45 10 65 13 34 5 35 4
    29 -22 -12 -47 21 -33 118 50 105 90 163 114 204 88 21 -15 26 -28 31 -94 6
    -84 24 -127 89 -205 52 -64 183 -160 282 -208 46 -22 99 -47 118 -56 61 -30
    124 -114 202 -272 47 -95 84 -156 102 -169 41 -29 200 -74 404 -113 53 -10
    104 -26 119 -38 40 -32 70 -99 63 -142 -3 -21 -2 -45 4 -54 5 -10 47 -45 95
    -79 68 -49 87 -59 95 -47 14 23 11 80 -7 123 -9 21 -21 71 -26 111 -17 128
    -63 167 -278 238 -34 12 -91 36 -126 55 -54 29 -67 42 -93 94 l-30 61 11 149
    c6 83 14 158 18 168 11 28 50 22 124 -19 197 -108 416 -142 640 -101 58 11 81
    1 160 -65 26 -23 91 -64 145 -91 95 -49 96 -50 99 -92 4 -51 -16 -102 -66
    -171 -43 -58 -65 -67 -200 -77 l-84 -7 -39 37 c-21 21 -46 38 -55 38 -22 0
    -128 -84 -137 -109 -9 -26 7 -40 61 -55 168 -46 182 -48 264 -44 113 5 164 31
    284 144 52 50 117 108 144 129 53 42 78 89 68 127 -3 14 -23 48 -43 76 -104
    146 -113 164 -107 199 3 18 26 78 52 132 67 139 97 238 116 373 21 144 47 205
    138 325 62 81 120 188 182 333 12 27 27 50 33 50 6 0 29 -12 51 -26 53 -33
    109 -48 182 -48 73 0 151 -24 242 -76 106 -59 174 -52 213 24 35 67 11 138
    -60 178 -74 41 -176 202 -176 276 0 35 -25 71 -50 71 -7 0 -33 27 -59 61 -26
    34 -72 82 -101 106 -50 42 -52 47 -52 96 0 28 -4 51 -8 51 -15 0 -31 -15 -44
    -39 -14 -27 -45 -31 -64 -7 -19 23 -64 53 -91 61 -17 6 -24 2 -29 -14z">
    </path>
    <path fill="#feffff" stroke="none" d="M4236 4019 c25 -35 21 -60 -9 -60 -24
    0 -37 21 -37 65 -1 26 27 23 46 -5z">
    </path>
    <path fill="#feffff" stroke="none" d="M4460 3746 c19 -18 16 -44 -8 -66 -19
    -17 -22 -17 -47 -1 -29 19 -32 29 -16 60 13 22 52 27 71 7z">
    </path>
  </g>
</svg>
