<?xml version="1.0" encoding="UTF-8"?>
<svg version="1.1" xmlns="http://www.w3.org/2000/svg" width="117" height="118">
<path d="M0 0 C19.14 0 38.28 0 58 0 C58 38.94 58 77.88 58 118 C38.86 118 19.72 118 0 118 C1.11508316 114.65475051 1.81291942 114.15778307 4.5 112.0625 C13.68210649 104.21327994 19.70654293 94.18775833 24 83 C24.3403125 82.12730469 24.680625 81.25460938 25.03125 80.35546875 C30.81886035 62.05483047 27.741625 40.98965189 19.25 24.125 C14.12409194 15.46761801 7.70150608 8.39061143 0 2 C0 1.34 0 0.68 0 0 Z " fill="#C1AB75" transform="translate(59,0)"/>
<path d="M0 0 C6.8551274 4.86154443 11.18717137 10.58343335 15 18 C15.5775 19.0725 16.155 20.145 16.75 21.25 C22.35513482 38.06540446 21.69690556 58.93364373 14 75 C9.37246964 82.54251012 9.37246964 82.54251012 5 84 C3.71233795 85.83085923 3.71233795 85.83085923 2.5 88.0625 C-2.29606301 95.58032877 -9.96273694 100.39746656 -18 104 C-21.375 104.1875 -21.375 104.1875 -24 104 C-22 99 -22 99 -20.9375 96.6875 C-18.53548553 89.80172517 -18.92886477 84.8225631 -21 78 C-20.19175781 77.82984375 -19.38351563 77.6596875 -18.55078125 77.484375 C-10.47739857 75.81982083 -10.47739857 75.81982083 -4 71 C-3.505 69.515 -3.505 69.515 -3 68 C-4.28583984 68.45052734 -4.28583984 68.45052734 -5.59765625 68.91015625 C-17.70195384 72.93582456 -17.70195384 72.93582456 -23 71 C-31.20293399 65.59413203 -31.20293399 65.59413203 -33 62 C-33.49222277 56.37950278 -33.1364449 51.23429001 -31 46 C-28.875 44.5625 -28.875 44.5625 -27 44 C-27 44.66 -27 45.32 -27 46 C-20.71793508 47.44274672 -20.71793508 47.44274672 -14.6953125 45.80078125 C-13.35792657 44.75862957 -12.05197789 43.67421849 -10.7890625 42.54296875 C-8.9153974 40.92703488 -7.30111073 39.90416924 -5 39 C-1.5625 39.3125 -1.5625 39.3125 2 41 C7.04896904 47.62435069 8.12464446 54.12454957 8.5625 62.25 C8.62727539 63.36761719 8.62727539 63.36761719 8.69335938 64.5078125 C8.79896725 66.338349 8.89994201 68.16915176 9 70 C9.56617791 53.28404851 9.56617791 53.28404851 2.140625 38.70703125 C0.30939844 35.96646274 -0.28245696 33.19632808 -1 30 C-1.5259375 30.7734375 -1.5259375 30.7734375 -2.0625 31.5625 C-4 33 -4 33 -7.25 32.875 C-11.17176402 31.95992173 -14.36671642 30.70541882 -18 29 C-18 28.67 -18 28.34 -18 28 C-17.31292969 28.01160156 -16.62585938 28.02320312 -15.91796875 28.03515625 C-15.01691406 28.04417969 -14.11585937 28.05320312 -13.1875 28.0625 C-11.84751953 28.07990234 -11.84751953 28.07990234 -10.48046875 28.09765625 C-7.86586209 28.11009967 -7.86586209 28.11009967 -5 27 C-5 26.01 -5 25.02 -5 24 C-6.65 23.34 -8.3 22.68 -10 22 C-10 21.34 -10 20.68 -10 20 C-10.61488281 19.89042969 -11.22976562 19.78085937 -11.86328125 19.66796875 C-13.07564453 19.43013672 -13.07564453 19.43013672 -14.3125 19.1875 C-15.11300781 19.03667969 -15.91351563 18.88585937 -16.73828125 18.73046875 C-19.26320524 17.91499244 -20.38069734 17.08046329 -22 15 C-22 14.34 -22 13.68 -22 13 C-20.35 13.33 -18.7 13.66 -17 14 C-19.75520215 11.04070881 -22.46627288 8.96318174 -26 7 C-25.6740051 3.95738092 -25.02104739 3.0198781 -22.75 0.875 C-15.33369085 -4.18157442 -7.82393496 -4.30316423 0 0 Z M-12 46 C-9.13822943 47.43088528 -7.06624227 46.59991697 -4 46 C-4 45.01 -4 44.02 -4 43 C-7.57575896 43 -9.05295935 44.08840607 -12 46 Z M-14 48 C-13 50 -13 50 -13 50 Z M-8.1875 64 C-11.29552138 65.10507427 -13.72649136 65.15225622 -17 65 C-17 66.32 -17 67.64 -17 69 C-15.37181054 68.77169299 -13.7473651 68.51656424 -12.125 68.25 C-11.22007813 68.11078125 -10.31515625 67.9715625 -9.3828125 67.828125 C-6.83785757 67.22016157 -6.83785757 67.22016157 -5.6796875 64.921875 C-5.34324219 63.97054687 -5.34324219 63.97054687 -5 63 C-6.24929345 62.93070671 -6.24929345 62.93070671 -8.1875 64 Z M7 75 C8 78 8 78 8 78 Z " fill="#C4AF7B" transform="translate(62,14)"/>
<path d="M0 0 C0.66 0 1.32 0 2 0 C0.86709234 3.29573139 -0.61261649 5.95530075 -2.5625 8.8125 C-5.09595511 12.83888401 -6.43054964 16.19982952 -6 21 C-4.15154513 28.17474333 0.68953945 34.08793798 4.9765625 39.984375 C8.37958081 45.0560548 10.14981718 49.84509626 9 56 C7.43470464 59.25446302 5.56931898 62.43068102 3 65 C1.58429877 65.08651611 0.164405 65.10704904 -1.25390625 65.09765625 C-2.10791016 65.09443359 -2.96191406 65.09121094 -3.84179688 65.08789062 C-4.73962891 65.07951172 -5.63746094 65.07113281 -6.5625 65.0625 C-7.46419922 65.05798828 -8.36589844 65.05347656 -9.29492188 65.04882812 C-11.53001314 65.03700225 -13.76497437 65.0205222 -16 65 C-15.69191406 64.23429687 -15.38382813 63.46859375 -15.06640625 62.6796875 C-10.7681321 51.87889605 -10.91204554 42.26588108 -11.21484375 30.77929688 C-11.34159053 20.86424193 -10.0678594 12.91894822 -3.9375 4.875 C-3.24527344 3.94429687 -2.55304687 3.01359375 -1.83984375 2.0546875 C-1.23269531 1.37664063 -0.62554687 0.69859375 0 0 Z " fill="#C5B07E" transform="translate(32,53)"/>
<path d="M0 0 C3.76029974 1.88014987 4.65700561 2.46773372 6.91015625 5.66796875 C7.42513672 6.39693359 7.94011719 7.12589844 8.47070312 7.87695312 C8.99599609 8.63943359 9.52128906 9.40191406 10.0625 10.1875 C10.59166016 10.93064453 11.12082031 11.67378906 11.66601562 12.43945312 C17.49038473 20.7777281 20.26527586 27.63023916 19 38 C17.4869128 42.64310092 15.45298526 45.54701474 12 49 C8.37 49 4.74 49 1 49 C0.67 32.83 0.34 16.66 0 0 Z " fill="#C4AE7A" transform="translate(0,69)"/>
<path d="M0 0 C3.93254008 -0.09895097 7.86459746 -0.1715042 11.7980957 -0.21972656 C13.79339014 -0.24971281 15.78833582 -0.30053786 17.78320312 -0.3515625 C19.03681641 -0.36445312 20.29042969 -0.37734375 21.58203125 -0.390625 C23.31803589 -0.4220459 23.31803589 -0.4220459 25.08911133 -0.45410156 C28 -0 28 -0 29.83862305 1.83691406 C32.13055723 6.10568364 32.51472318 10.23662956 32 15 C31.01 17.475 31.01 17.475 30 20 C23.565 20.495 23.565 20.495 17 21 C16.608125 19.618125 16.21625 18.23625 15.8125 16.8125 C14.01252717 11.52041398 11.77246753 8.41652122 6.67578125 5.8125 C4.46952646 4.81500961 2.25549714 3.87959474 0 3 C0 2.01 0 1.02 0 0 Z " fill="#C7B382" transform="translate(1,0)"/>
<path d="M0 0 C1.12535156 0.34224609 1.12535156 0.34224609 2.2734375 0.69140625 C9.24362766 2.64902893 14.86548639 3.31009874 22 2 C22 2.66 22 3.32 22 4 C20.390625 5.296875 20.390625 5.296875 18.25 6.75 C12.03185593 11.35318439 9.96048965 15.22238395 8.75 22.875 C8.48532585 24.91481626 8.2304765 26.95603734 8 29 C0.73655603 20.47855749 0.45396016 10.86373635 0 0 Z " fill="#C9B585" transform="translate(6,48)"/>
<path d="M0 0 C5.49752057 1.83250686 10.26556812 3.53113625 13 9 C13.35519903 12.83614957 13.54724594 15.14629634 11.4375 18.4375 C8.14629634 20.54724594 5.83614957 20.35519903 2 20 C1.34 19.67 0.68 19.34 0 19 C0 12.73 0 6.46 0 0 Z " fill="#C7B280" transform="translate(1,5)"/>
<path d="M0 0 C8.09912256 -0.82165011 12.21947789 0.74607514 18.9453125 5.2734375 C19.62335937 5.84320313 20.30140625 6.41296875 21 7 C21 7.66 21 8.32 21 9 C20.34773438 9.03738281 19.69546875 9.07476562 19.0234375 9.11328125 C13.64143271 9.51812232 9.75851639 10.26385307 5 13 C4.34 13 3.68 13 3 13 C2.01 8.71 1.02 4.42 0 0 Z " fill="#CAB789" transform="translate(34,0)"/>
<path d="M0 0 C1.37109992 0.40913816 2.74567881 0.8069976 4.125 1.1875 C5.07375 1.455625 6.0225 1.72375 7 2 C7.33 3.32 7.66 4.64 8 6 C7.38125 5.67 6.7625 5.34 6.125 5 C0.65330421 3.24905735 -4.88474677 2.92078917 -10.0625 5.5625 C-14.12232962 7.54922513 -17.67498933 7.15045284 -22 6 C-22.66 5.34 -23.32 4.68 -24 4 C-22.05070182 3.02535091 -20.10080943 2.05423955 -18.140625 1.1015625 C-15.81895054 -0.04015854 -15.81895054 -0.04015854 -13.125 -1.9375 C-8.27703384 -3.5858085 -4.66181922 -1.70321584 0 0 Z " fill="#C9B687" transform="translate(29,36)"/>
<path d="M0 0 C0.66 0 1.32 0 2 0 C0.60166859 4.06787318 -1.45397616 7.45200597 -3.78125 11.03515625 C-4.98428221 12.9746601 -6.01111106 14.94439291 -7 17 C-7.66 16.67 -8.32 16.34 -9 16 C-8.46465288 11.49484812 -6.74051417 8.80499834 -4.0625 5.1875 C-3.35222656 4.21167969 -2.64195313 3.23585937 -1.91015625 2.23046875 C-1.27980469 1.49441406 -0.64945313 0.75835937 0 0 Z " fill="#DFD3B7" transform="translate(32,53)"/>
<path d="M0 0 C0 0.33 0 0.66 0 1 C-1.1446875 1.185625 -1.1446875 1.185625 -2.3125 1.375 C-5.20267136 1.88102792 -5.20267136 1.88102792 -8 4 C-9.99212671 5.01559401 -11.9911515 6.01789629 -14 7 C-14.66 6.34 -15.32 5.68 -16 5 C-6.95899772 -2.07289294 -6.95899772 -2.07289294 0 0 Z " fill="#DACDAC" transform="translate(63,54)"/>
<path d="M0 0 C2.4375 0.375 2.4375 0.375 5 1 C5.33 1.66 5.66 2.32 6 3 C6.66 2.34 7.32 1.68 8 1 C7.67 2.65 7.34 4.3 7 6 C2.32307692 4.52307692 2.32307692 4.52307692 0.6875 1.875 C0.460625 1.25625 0.23375 0.6375 0 0 Z " fill="#DACDAD" transform="translate(40,27)"/>
<path d="M0 0 C0.33 0.66 0.66 1.32 1 2 C1.66 2.33 2.32 2.66 3 3 C-1.32734391 5.22923777 -4.28400182 4.92470553 -9 4 C-9 3.67 -9 3.34 -9 3 C-6.03 2.01 -3.06 1.02 0 0 Z " fill="#D7C9A5" transform="translate(56,79)"/>
<path d="M0 0 C0.33 1.32 0.66 2.64 1 4 C0.319375 3.690625 -0.36125 3.38125 -1.0625 3.0625 C-4.36965912 1.86629351 -7.51545878 1.40994603 -11 1 C-7.2297564 -1.56376565 -4.32597804 -0.83191885 0 0 Z " fill="#DED1B4" transform="translate(36,38)"/>
<path d="M0 0 C0.66 0.33 1.32 0.66 2 1 C-2.36363636 5.72727273 -2.36363636 5.72727273 -5.1875 6.9375 C-5.785625 6.958125 -6.38375 6.97875 -7 7 C-7.66 6.34 -8.32 5.68 -9 5 C-8.43410156 4.72285156 -7.86820312 4.44570313 -7.28515625 4.16015625 C-6.55167969 3.79792969 -5.81820313 3.43570313 -5.0625 3.0625 C-3.96615234 2.52302734 -3.96615234 2.52302734 -2.84765625 1.97265625 C-1.03750973 1.13628173 -1.03750973 1.13628173 0 0 Z " fill="#DACCAC" transform="translate(14,35)"/>
<path d="M0 0 C0.66 0 1.32 0 2 0 C1.67 2.64 1.34 5.28 1 8 C0.01 7.67 -0.98 7.34 -2 7 C-1.125 2.25 -1.125 2.25 0 0 Z " fill="#D2C29B" transform="translate(25,62)"/>
<path d="M0 0 C-1.28062485 1.7074998 -2.61767557 3.37373596 -4 5 C-4.66 5 -5.32 5 -6 5 C-6 3.35 -6 1.7 -6 0 C-3 -1 -3 -1 0 0 Z " fill="#DBCEAE" transform="translate(53,62)"/>
</svg>
